<svg width="260" height="200" xmlns="http://www.w3.org/2000/svg"><path d="M233 198 232 199 233 199 234 199 234 198 " style="stroke:black"/><path d="M203 198 202 199 203 199 204 199 205 199 206 199 207 199 208 199 209 199 210 199 209 199 208 199 207 199 206 199 205 199 204 198 " style="stroke:black"/><path d="M101 195 101 196 101 197 101 198 101 199 102 199 103 199 103 198 103 197 103 196 103 195 102 195 " style="stroke:black"/><path d="M98 192 97 193 98 194 99 194 99 193 99 192 " style="stroke:black"/><path d="M103 187 103 188 103 189 104 189 105 189 106 190 106 191 106 192 106 193 106 194 107 194 108 194 109 194 109 193 109 192 108 191 108 190 107 189 107 188 106 188 105 187 104 187 " style="stroke:black"/><path d="M0 180 0 181 0 182 1 182 2 182 2 181 1 180 " style="stroke:black"/><path d="M252 159 251 160 251 161 251 162 251 163 251 164 251 165 251 166 250 167 249 167 248 167 247 167 246 167 245 167 244 167 243 167 242 167 241 167 240 166 239 167 238 167 237 168 237 169 237 170 237 171 236 172 235 173 234 173 233 173 232 173 231 173 230 173 229 173 228 172 227 172 226 173 225 173 224 174 224 175 223 176 223 177 223 178 223 179 224 179 225 179 226 179 227 179 228 179 229 180 229 181 230 182 231 182 231 181 231 180 232 179 232 178 232 177 233 176 233 175 234 174 235 174 236 174 237 174 238 174 239 174 240 174 241 174 242 174 243 175 243 176 243 177 243 178 243 179 243 180 242 181 241 182 241 183 241 184 241 185 240 186 239 186 238 186 237 186 236 186 235 186 234 186 233 186 232 186 232 187 231 188 232 189 233 189 234 189 235 189 236 189 237 189 238 189 239 190 240 190 241 191 242 191 243 191 244 191 245 191 246 191 247 191 248 191 249 191 250 192 251 192 252 192 253 192 254 192 255 192 256 192 257 192 258 192 259 192 259 191 259 190 259 189 259 188 259 187 259 186 259 185 259 184 259 183 259 182 259 181 259 180 259 179 259 178 259 177 259 176 259 175 259 174 259 173 259 172 259 171 259 170 259 169 259 168 259 167 259 166 259 165 259 164 258 164 257 164 256 164 255 163 255 162 255 161 254 160 254 159 253 159 " style="stroke:black"/><path d="M163 133 163 134 163 135 164 136 164 137 165 138 165 139 166 140 166 141 166 142 167 143 167 144 167 145 168 146 168 147 169 148 170 149 170 150 170 151 170 152 170 153 170 154 170 155 170 156 170 157 170 158 170 159 170 160 170 161 169 162 169 163 169 164 169 165 169 166 168 167 168 168 167 169 167 170 167 171 166 172 166 173 165 174 165 175 164 176 163 177 162 178 162 179 161 180 160 181 159 182 158 183 157 183 156 184 155 185 154 185 153 185 152 186 151 186 150 186 149 186 148 186 147 186 146 186 145 186 144 186 143 185 142 185 141 185 140 184 139 184 138 183 137 183 136 182 136 181 135 180 134 179 133 178 133 177 132 176 131 175 130 175 129 175 128 174 128 173 128 172 128 171 127 170 126 169 126 168 125 167 125 166 124 165 124 164 123 163 123 162 122 161 122 160 122 159 121 158 121 157 120 156 120 155 119 154 118 153 118 152 118 151 117 150 117 149 116 148 115 147 115 146 114 145 113 145 112 145 111 145 111 146 112 147 112 148 113 149 113 150 114 151 115 152 115 153 116 154 116 155 117 156 118 157 118 158 119 159 119 160 120 161 121 162 121 163 121 164 121 165 121 166 122 167 123 168 124 169 124 170 124 171 125 172 125 173 126 174 127 174 128 175 128 176 129 177 130 178 131 179 132 180 133 181 133 182 134 183 135 183 136 183 137 184 137 185 137 186 138 186 139 187 140 187 141 187 142 188 143 188 144 188 145 189 146 189 147 189 148 190 148 191 148 192 148 193 148 194 148 195 147 196 147 197 147 198 147 199 148 199 149 199 150 199 151 199 151 198 151 197 151 196 151 195 151 194 152 193 153 193 154 192 155 192 156 192 157 192 158 192 159 193 159 194 159 195 159 196 159 197 159 198 159 199 160 199 161 199 162 199 162 198 162 197 161 196 161 195 161 194 161 193 161 192 161 191 161 190 161 189 162 188 163 187 164 186 165 185 166 184 166 183 166 182 166 181 166 180 167 179 168 179 168 178 168 177 168 176 168 175 169 174 170 173 171 172 171 171 171 170 171 169 171 168 171 167 172 166 173 166 174 166 175 166 176 166 177 167 177 168 177 169 177 170 178 171 178 172 179 172 180 172 181 172 182 172 183 172 184 173 184 174 184 175 184 176 184 177 184 178 184 179 184 180 183 181 182 181 181 181 180 181 179 181 178 181 177 180 177 179 177 178 176 178 175 178 174 179 174 180 173 181 172 181 173 182 173 183 174 183 175 183 176 183 177 184 178 184 179 184 180 184 181 184 182 184 183 184 184 184 185 184 186 185 187 185 188 185 189 185 190 185 191 185 192 185 193 185 194 185 195 185 196 185 197 185 198 185 199 185 200 185 201 185 202 185 203 186 204 186 205 187 206 188 207 188 208 188 208 187 208 186 208 185 208 184 208 183 209 182 210 182 211 182 212 182 213 182 214 183 214 184 214 185 215 185 216 185 217 185 218 185 219 186 219 187 219 188 219 189 219 190 219 191 219 192 219 193 219 194 219 195 219 196 219 197 219 198 219 199 220 199 221 199 222 199 222 198 222 197 222 196 222 195 222 194 222 193 222 192 222 191 222 190 222 189 222 188 222 187 222 186 222 185 222 184 222 183 222 182 221 182 220 182 219 182 218 182 217 181 217 180 217 179 216 178 216 177 216 176 215 176 214 175 213 175 212 175 211 175 210 175 209 175 208 175 207 174 207 173 207 172 207 171 206 171 205 171 204 171 203 170 203 169 203 168 203 167 203 166 204 165 205 164 206 164 207 164 207 163 207 162 206 162 205 162 204 162 203 162 202 162 201 163 200 163 199 163 198 163 197 163 196 162 196 161 196 160 196 159 196 158 196 157 197 156 197 155 198 154 199 154 200 154 201 154 202 154 203 154 204 154 205 154 206 154 207 154 208 154 209 154 210 154 211 154 212 154 213 154 214 155 214 156 215 156 216 156 217 156 218 156 219 156 220 156 221 156 222 156 223 156 224 156 224 155 225 154 226 154 227 154 228 154 229 154 230 155 230 156 230 155 229 154 228 154 227 154 226 154 225 154 224 154 223 153 222 153 221 154 220 154 219 154 218 154 217 154 216 154 215 154 214 154 213 154 212 154 211 154 210 154 209 154 208 154 207 154 206 154 205 154 204 154 203 154 202 154 201 154 200 154 199 154 198 154 197 155 196 155 195 155 194 155 193 155 192 154 191 153 190 153 189 152 188 152 187 152 186 152 185 152 184 152 183 152 182 152 181 152 180 152 179 152 178 152 177 152 176 152 175 152 174 152 173 152 172 152 171 151 171 150 171 149 171 148 171 147 171 146 170 145 169 144 169 143 168 142 168 141 168 140 168 139 167 138 166 137 166 136 165 135 165 134 164 134 " style="stroke:black"/><path d="M158 126 158 127 158 128 159 129 160 130 160 131 161 131 162 131 162 130 162 129 161 128 160 127 160 126 159 126 " style="stroke:black"/><path d="M155 122 155 123 155 124 156 124 157 124 157 123 157 122 156 122 " style="stroke:black"/><path d="M239 77 238 78 237 79 238 80 238 81 239 82 239 83 239 84 239 85 239 86 239 87 239 88 239 89 239 90 240 91 240 92 240 93 241 93 242 93 243 93 244 93 245 93 246 94 246 95 246 96 246 97 246 98 245 99 244 99 243 99 242 99 241 99 240 100 240 101 240 102 240 103 240 104 240 105 241 106 241 107 241 108 241 109 241 110 241 109 241 108 241 107 242 106 243 106 244 106 245 106 246 106 247 107 248 108 248 109 248 110 248 111 248 112 248 113 248 114 248 115 247 116 246 116 245 116 244 116 243 116 242 116 241 117 242 118 242 119 242 120 242 121 242 122 242 123 242 124 242 125 242 126 242 127 242 128 243 129 243 130 243 131 243 132 243 133 244 134 245 134 246 134 247 134 248 134 249 134 250 135 250 136 250 137 250 138 250 139 250 140 250 141 250 142 250 143 251 144 251 145 251 146 251 147 251 148 252 147 253 147 253 146 253 145 253 144 253 143 252 143 251 143 250 142 250 141 250 140 250 139 250 138 250 137 250 136 250 135 250 134 251 133 252 133 252 132 251 131 251 130 251 129 251 128 251 127 250 127 249 126 249 125 249 124 249 123 249 122 250 121 251 121 251 120 251 119 250 118 250 117 249 117 248 116 248 115 248 114 248 113 248 112 248 111 249 110 250 110 249 109 249 108 249 107 249 106 249 105 249 104 249 103 249 102 249 101 249 100 249 99 249 98 249 97 249 96 248 96 247 96 246 95 246 94 246 93 246 92 246 91 246 90 246 89 246 88 246 87 247 86 248 86 247 85 247 84 247 83 247 82 247 81 247 80 247 79 247 78 246 78 245 79 244 79 243 79 242 79 241 79 240 78 " style="stroke:black"/><path d="M244 54 244 55 243 56 243 57 242 58 241 58 240 58 239 58 238 58 237 59 237 60 238 61 239 62 240 62 240 61 240 60 241 59 242 59 243 59 244 59 245 59 245 58 245 57 246 56 246 55 246 54 245 54 " style="stroke:black"/><path d="M258 50 257 51 257 52 258 53 259 54 259 53 259 52 259 51 259 50 " style="stroke:black"/><path d="M4 42 3 43 3 44 4 44 5 44 6 44 7 44 7 43 6 42 5 42 " style="stroke:black"/><path d="M190 25 " style="stroke:black"/><path d="M253 24 252 25 252 26 252 27 253 27 254 27 255 26 255 25 255 24 254 24 " style="stroke:black"/><path d="M258 20 258 21 258 22 259 22 259 21 259 20 " style="stroke:black"/><path d="M160 6 160 7 160 8 161 8 162 9 162 10 163 11 164 11 165 12 166 13 166 14 167 14 168 14 169 14 169 13 169 12 168 11 167 10 166 9 165 9 164 8 163 8 162 7 162 6 161 6 " style="stroke:black"/><path d="M201 0 202 1 203 1 203 0 202 0 " style="stroke:black"/><path d="M175 0 175 1 176 2 177 2 178 2 179 3 179 4 179 5 179 6 179 7 180 8 180 9 180 10 180 11 180 12 181 11 182 11 183 10 184 10 184 9 184 8 184 7 184 6 185 5 185 4 185 3 185 2 185 1 185 0 184 0 183 0 182 0 181 0 180 0 179 0 178 0 177 0 176 0 " style="stroke:black"/><path d="M98 0 99 1 100 2 100 3 100 4 101 5 101 6 102 6 103 7 104 8 104 9 105 10 105 11 105 12 105 13 105 14 104 15 104 16 104 17 104 18 103 19 102 19 101 19 100 19 99 19 98 19 97 19 96 19 95 20 94 20 93 20 92 20 91 20 90 20 89 19 88 20 87 20 86 20 85 20 84 20 83 20 82 21 81 21 80 21 79 21 78 22 77 22 76 22 75 22 74 23 73 23 72 23 71 23 70 24 69 24 68 24 67 25 66 25 65 25 64 26 63 26 62 26 61 26 60 27 59 27 58 27 57 27 56 28 55 28 54 28 53 29 52 29 51 29 50 30 49 30 48 30 47 31 46 31 45 32 44 32 43 33 42 33 41 33 40 34 39 34 38 35 37 35 36 35 35 35 34 35 33 35 32 35 31 34 31 33 30 32 29 31 29 30 29 29 29 28 29 27 30 26 31 26 32 26 33 26 34 26 35 26 36 26 37 26 38 27 38 28 38 27 37 26 36 26 35 26 34 26 33 26 32 26 31 26 30 26 29 26 28 26 27 26 26 26 25 26 24 26 23 26 22 26 21 26 20 26 19 27 18 27 17 27 16 27 15 27 14 26 13 26 12 25 11 25 10 25 9 25 8 25 7 25 6 25 5 25 4 25 3 25 2 24 1 24 0 23 0 24 0 25 0 26 0 27 0 28 0 29 0 30 0 31 1 31 2 31 3 32 3 33 4 33 5 33 6 33 7 34 8 34 9 34 10 34 11 34 12 34 12 33 13 32 14 32 15 32 16 32 17 32 18 32 19 32 20 32 21 32 22 32 23 32 24 33 24 34 25 34 25 33 26 32 27 32 28 32 29 32 30 32 31 33 31 34 31 35 31 36 31 37 30 38 29 38 28 38 28 39 27 40 26 40 25 41 24 41 23 42 22 43 21 43 20 44 19 45 18 46 17 47 16 48 15 49 14 50 13 51 12 52 12 53 11 54 11 55 10 56 10 57 10 58 10 59 10 60 10 61 10 62 10 63 10 64 11 65 11 66 11 67 11 68 11 69 11 70 12 71 12 72 13 73 13 74 13 75 13 76 13 77 13 78 14 79 14 80 14 81 15 82 15 83 15 84 16 85 16 86 16 87 17 88 17 89 17 90 17 91 17 92 18 93 18 94 18 95 19 96 19 97 19 98 20 99 20 100 20 101 20 102 20 103 21 104 21 105 22 106 22 107 22 108 22 109 23 110 23 111 24 112 24 113 24 114 24 115 24 116 24 117 23 118 22 118 21 118 20 118 19 118 18 117 17 117 16 117 16 118 16 119 17 120 18 121 18 122 19 122 20 123 21 124 22 124 23 125 24 125 25 126 26 126 27 126 28 127 29 128 30 129 30 130 31 131 31 132 32 133 32 134 32 135 32 136 32 137 32 138 31 139 30 140 30 141 30 142 30 143 30 144 30 145 30 146 31 147 32 147 33 147 34 147 35 147 36 146 37 146 38 146 39 146 40 146 41 147 41 148 41 149 41 150 41 151 40 152 39 152 38 153 37 153 36 154 35 154 34 154 33 155 32 155 31 156 30 156 29 157 28 158 27 158 26 159 25 159 24 160 23 160 22 161 21 162 20 162 19 163 19 164 18 165 17 166 16 167 16 168 15 169 15 170 15 171 14 172 14 173 14 174 13 175 13 176 12 177 12 178 11 179 11 180 11 181 10 182 10 183 10 184 10 185 9 186 9 187 9 188 9 189 9 190 9 191 9 192 9 193 9 194 9 195 9 196 9 197 9 198 9 199 10 199 11 199 12 199 13 199 13 198 12 197 12 196 12 195 12 194 12 193 12 192 12 191 12 190 12 189 12 188 12 187 12 186 12 185 12 184 13 183 14 182 14 181 14 180 15 179 15 178 16 177 16 176 16 175 17 174 17 173 18 172 18 171 19 170 19 169 20 168 21 167 21 166 22 165 23 164 24 164 25 163 26 162 27 162 28 161 29 160 30 160 31 159 32 159 33 159 34 158 35 157 36 157 37 157 38 156 39 156 40 155 41 155 42 154 43 153 44 152 45 151 46 150 47 149 48 149 49 148 50 148 51 148 52 148 53 148 54 149 54 150 55 150 56 151 56 152 56 153 56 154 56 155 56 156 56 157 57 158 58 159 58 160 59 161 59 162 60 163 61 163 62 163 63 163 64 164 65 164 66 164 67 165 68 165 69 165 70 165 71 165 72 165 73 165 74 165 75 165 76 164 77 164 78 164 79 164 80 164 81 164 82 164 83 164 84 164 85 163 86 162 87 162 88 161 89 161 90 160 91 159 91 158 92 157 93 156 94 156 94 155 94 154 95 153 96 152 96 151 97 150 97 149 98 148 98 147 98 146 99 145 99 144 99 143 99 142 99 141 99 140 100 139 101 139 102 139 103 139 104 139 105 140 106 141 106 142 107 142 108 142 109 142 109 141 109 140 109 139 108 139 107 138 106 137 106 136 106 135 106 134 106 133 107 132 108 131 109 131 110 131 111 130 112 130 113 130 114 129 115 129 116 129 117 128 118 128 119 128 120 127 121 127 122 126 123 126 124 125 125 125 126 125 127 125 128 124 129 124 130 124 131 124 132 124 133 125 133 126 133 127 133 128 134 128 135 128 135 127 135 126 135 125 135 124 135 123 136 122 137 121 138 121 139 121 140 120 141 120 142 119 143 119 144 119 145 118 146 118 147 118 148 117 149 117 150 116 151 116 152 115 153 115 154 114 155 114 156 113 157 113 158 112 159 112 160 111 161 110 162 110 163 109 164 108 165 108 166 107 167 106 168 105 169 104 170 103 171 103 172 103 173 103 174 103 175 103 176 103 177 104 178 104 179 104 180 105 181 105 182 105 183 105 184 105 185 105 186 105 187 105 188 105 189 104 189 103 189 102 190 101 191 101 192 101 193 101 194 101 195 101 196 101 196 100 197 99 198 98 198 97 198 96 199 95 199 94 199 93 199 92 199 91 199 90 199 89 199 88 200 87 200 86 200 85 200 84 199 83 199 82 199 81 199 80 199 79 200 78 201 78 202 78 203 78 204 78 205 78 206 78 207 78 208 78 209 78 210 78 211 78 212 78 213 78 214 78 215 78 216 78 217 78 217 77 216 76 215 76 214 76 213 76 212 76 211 76 210 76 209 76 208 76 207 76 206 76 205 76 204 77 203 77 202 77 201 77 200 77 199 77 198 76 197 76 196 75 196 74 196 73 196 72 196 71 196 70 195 69 195 68 194 67 193 66 192 65 192 64 192 63 192 62 192 61 193 60 194 60 195 60 196 59 197 59 198 59 199 59 200 59 201 60 202 60 203 60 204 60 205 60 206 60 207 60 208 60 209 60 210 60 211 60 212 59 212 58 211 57 210 57 209 57 208 57 207 57 206 57 205 57 204 57 203 57 202 57 201 57 200 57 199 57 198 57 197 57 196 57 195 57 194 57 193 56 193 55 193 54 193 53 193 52 194 51 195 50 196 50 197 50 198 50 199 50 200 50 201 50 202 50 203 50 204 50 205 50 206 50 207 50 208 50 209 50 210 50 211 50 212 50 213 50 214 50 215 50 216 50 217 50 218 50 219 50 220 50 221 50 222 50 223 50 224 50 225 50 226 50 227 50 228 50 229 50 230 50 230 49 231 48 232 48 233 48 234 48 235 48 236 49 236 50 237 50 238 49 239 49 240 48 241 48 242 47 243 46 244 46 245 46 246 46 247 46 248 46 249 46 250 46 250 45 250 44 249 43 248 43 247 43 246 43 245 43 244 43 243 44 242 44 241 44 240 45 239 45 239 46 238 47 237 48 236 48 235 48 234 48 233 48 232 48 231 47 231 46 231 45 231 44 230 44 229 43 228 43 227 43 226 43 225 43 224 43 223 43 222 43 221 43 220 43 219 43 218 43 217 43 216 43 215 43 214 42 214 41 214 40 213 39 212 39 211 39 210 39 209 39 208 39 207 39 206 39 205 39 204 39 203 39 202 40 202 41 202 42 201 43 200 43 199 43 198 43 197 43 196 42 196 41 196 40 196 39 196 38 195 37 195 36 195 35 195 34 195 33 195 32 195 31 195 30 194 29 194 28 193 28 192 28 192 29 192 30 192 31 193 32 193 33 193 34 193 35 193 36 193 37 193 38 193 39 193 40 193 41 193 42 193 43 192 44 191 44 190 44 189 44 188 44 187 43 186 43 185 42 184 42 183 41 182 41 181 40 180 40 179 39 178 39 177 39 176 39 175 39 174 40 174 41 175 41 176 41 177 41 178 41 179 42 180 42 181 42 182 43 183 44 184 45 184 46 185 47 185 48 185 49 185 50 185 51 185 52 185 53 185 54 184 55 183 55 182 55 181 55 180 55 180 56 179 57 178 57 177 57 176 57 175 57 175 58 175 59 175 60 175 61 175 62 174 63 173 63 172 63 171 63 170 63 169 62 169 61 168 60 168 59 168 58 168 57 167 56 167 55 167 54 166 53 166 52 166 51 165 50 165 49 165 48 164 47 164 46 164 45 164 44 163 43 163 42 163 41 163 40 163 39 163 38 163 37 163 36 164 35 165 35 166 35 167 34 167 33 168 32 169 31 170 31 171 30 172 29 173 28 174 28 175 28 175 27 176 26 176 25 177 24 177 23 177 22 176 22 175 22 175 23 174 24 173 25 172 25 171 26 170 27 169 27 168 27 167 27 166 27 165 27 164 28 163 28 162 28 161 28 160 28 159 27 158 26 158 25 158 24 157 23 157 22 157 21 156 20 156 19 155 18 154 17 153 16 152 15 152 14 151 14 150 13 149 13 148 12 147 12 146 12 145 11 145 10 145 9 145 8 144 7 144 6 144 5 143 4 143 3 143 2 143 1 143 0 142 0 141 0 140 0 139 0 138 0 137 0 136 0 135 0 134 0 133 0 133 1 133 2 133 3 133 4 132 5 132 6 132 7 132 8 132 9 131 10 130 10 129 10 128 10 127 10 126 10 125 10 124 10 123 9 123 8 123 7 123 6 123 5 122 4 121 4 120 3 119 3 118 3 117 4 118 5 119 6 119 7 119 8 119 9 119 10 118 11 117 11 116 11 115 11 114 11 113 12 112 12 111 13 110 13 109 13 108 13 107 13 106 12 106 11 106 10 106 9 106 8 106 7 105 6 104 5 103 4 102 3 101 3 100 2 100 1 100 0 99 0 " style="stroke:black"/><path d="M90 0 90 1 90 2 89 3 89 4 89 5 89 6 89 7 90 7 91 7 91 6 91 5 91 4 91 3 92 2 92 1 92 0 91 0 " style="stroke:black"/></svg>